<?xml version="1.0" standalone="no"?>
<!DOCTYPE svg PUBLIC "-//W3C//DTD SVG 20010904//EN"
 "http://www.w3.org/TR/2001/REC-SVG-20010904/DTD/svg10.dtd">
<svg version="1.0" xmlns="http://www.w3.org/2000/svg"
 width="500.000000pt" height="500.000000pt" viewBox="0 0 500.000000 500.000000"
 preserveAspectRatio="xMidYMid meet">
<metadata>
Created by potrace 1.14, written by Peter Selinger 2001-2017
</metadata>
<g transform="translate(0.000000,500.000000) scale(0.100000,-0.100000)"
fill="#000000" stroke="none">
<path d="M0 2500 l0 -2500 2500 0 2500 0 0 2500 0 2500 -2500 0 -2500 0 0
-2500z m2760 1800 c274 -23 491 -126 674 -320 125 -133 203 -278 253 -469 31
-119 42 -344 24 -471 -60 -407 -313 -721 -676 -840 -38 -13 -71 -24 -73 -26
-2 -1 708 -916 910 -1171 l50 -63 -471 0 -471 0 -397 596 -398 597 -3 -597 -2
-596 -375 0 -375 0 0 1678 c0 923 3 1682 7 1685 10 11 1195 8 1323 -3z"/>
<path d="M2180 3226 l0 -496 228 0 c295 0 339 12 456 120 63 58 90 102 122
197 31 93 35 231 9 327 -36 133 -129 245 -254 305 l-76 36 -242 3 -243 4 0
-496z"/>
</g>
</svg>
